{
.formatVersion = 3;
classes = (
{
code = "u10C80 u10C81 u10C82 u10C83 u10C84 u10C85 u10C86 u10C87 u10C88 u10C89 u10C8A u10C8B u10C8C u10C8D u10C8E u10C8F u10C90 u10C91 u10C92 u10C93 u10C94 u10C95 u10C96 u10C97 u10C98 u10C99 u10C9A u10C9B u10C9C u10C9D u10C9E u10C9F u10CA0 u10CA1 u10CA2 u10CA3 u10CA4 u10CA5 u10CA6 u10CA7 u10CA8 u10CA9 u10CAA u10CAB u10CAC u10CAD u10CAE u10CAF u10CB0 u10CB1 u10CB2 u10CC0 u10CC1 u10CC2 u10CC3 u10CC4 u10CC5 u10CC6 u10CC7 u10CC8 u10CC9 u10CCA u10CCB u10CCC u10CCD u10CCE u10CCF u10CD0 u10CD1 u10CD2 u10CD3 u10CD4 u10CD5 u10CD6 u10CD7 u10CD8 u10CD9 u10CDA u10CDB u10CDC u10CDD u10CDE u10CDF u10CE0 u10CE1 u10CE2 u10CE3 u10CE4 u10CE5 u10CE6 u10CE7 u10CE8 u10CE9 u10CEA u10CEB u10CEC u10CED u10CEE u10CEF u10CF0 u10CF1 u10CF2";
name = ltrm;
}
);
familyName = NotoSansOldHungarianUI;
customParameters = (
{
name = glyphOrder;
value = (
uni000D,
space,
uni00A0,
u10C80,
u10C81,
u10C82,
u10C83,
u10C84,
u10C85,
u10C86,
u10C87,
u10C88,
u10C89,
u10C8A,
u10C8B,
u10C8C,
u10C8D,
u10C8E,
u10C8F,
u10C90,
u10C91,
u10C92,
u10C93,
u10C94,
u10C95,
u10C96,
u10C97,
u10C98,
u10C99,
u10C9A,
u10C9B,
u10C9C,
u10C9D,
u10C9E,
u10C9F,
u10CA0,
u10CA1,
u10CA2,
u10CA3,
u10CA4,
u10CA5,
u10CA6,
u10CA7,
u10CA8,
u10CA9,
u10CAA,
u10CAB,
u10CAC,
u10CAD,
u10CAE,
u10CAF,
u10CB0,
u10CB1,
u10CB2,
u10CC0,
u10CC1,
u10CC2,
u10CC3,
u10CC4,
u10CC5,
u10CC6,
u10CC7,
u10CC8,
u10CC9,
u10CCA,
u10CCB,
u10CCC,
u10CCD,
u10CCE,
u10CCF,
u10CD0,
u10CD1,
u10CD2,
u10CD3,
u10CD4,
u10CD5,
u10CD6,
u10CD7,
u10CD8,
u10CD9,
u10CDA,
u10CDB,
u10CDC,
u10CDD,
u10CDE,
u10CDF,
u10CE0,
u10CE1,
u10CE2,
u10CE3,
u10CE4,
u10CE5,
u10CE6,
u10CE7,
u10CE8,
u10CE9,
u10CEA,
u10CEB,
u10CEC,
u10CED,
u10CEE,
u10CEF,
u10CF0,
u10CF1,
u10CF2,
u10CFA,
u10CFB,
u10CFC,
u10CFD,
u10CFE,
u10CFF,
uni0000,
uni0009,
uni000A,
uni200D
);
},
{
name = trademark;
value = "Noto is a trademark of Google LLC.";
},
{
name = GSDimensionPlugin.Dimensions;
value = {
"DF3D429B-B001-47F3-AA76-BED16C0F0C90" = {
};
};
},
{

glyphs = (
{
glyphname = u10C80;
layers = (
{
layerId = "A8967B45-C713-4D25-A888-91C227C40537";
shapes = (
{
closed = 1;
nodes = (
(618,4,l),
(618,760,l),
(20,760,l),
(20,958,l),
(604,1465,l),
(797,1465,l),
(797,4,l)
);
},
{
closed = 1;
nodes = (
(618,916,l),
(618,1285,l),
(184,916,l)
);
}
);
width = 1053;
}
);
unicode = 68736;
},
{
glyphname = u10C81;
layers = (
{
layerId = "A8967B45-C713-4D25-A888-91C227C40537";
shapes = (
{
closed = 1;
nodes = (
(618,2,l),
(618,442,l),
(46,822,l),
(46,964,l),
(612,1463,l),
(797,1463,l),
(797,2,l)
);
},
{
closed = 1;
nodes = (
(618,637,l),
(618,1265,l),
(214,904,l)
);
}
);
width = 1053;
}
);
unicode = 68737;
},
{
glyphname = u10C82;
layers = (
{
layerId = "A8967B45-C713-4D25-A888-91C227C40537";
shapes = (
{
closed = 1;
nodes = (
(9,1,l),
(571,756,l),
(45,1461,l),
(264,1461,l),
(691,869,l),
(1124,1461,l),
(1331,1461,l),
(806,759,l),
(1371,-1,l),
(1148,-1,l),
(685,639,l),
(217,1,l)
);
}
);
width = 1377;
}
);
unicode = 68738;
},
{
glyphname = u10C83;
layers = (
{
layerId = "A8967B45-C713-4D25-A888-91C227C40537";
shapes = (
{
closed = 1;
nodes = (
(1111,-2,o),
(1111,-2,o),
(925,-2,c),
(878,29,o),
(835,61,o),
(794,94,cs),
(753,127,o),
(715,160,o),
(680,193,c),
(501,0,l),
(110,152,l),
(170,282,l),
(451,165,l),
(574,308,l),
(525,371,o),
(487,437,o),
(461,506,cs),
(434,575,o),
(421,649,o),
(421,728,cs),
(421,807,o),
(434,881,o),
(461,951,cs),
(488,1021,o),
(525,1088,o),
(574,1151,c),
(451,1292,l),
(170,1175,l),
(110,1307,l),
(501,1457,l),
(680,1264,l),
(715,1299,o),
(753,1332,o),
(794,1365,cs),
(835,1398,o),
(878,1429,o),
(923,1459,c),
(1111,1459,l),
(1158,1428,o),
(1201,1398,o),
(1241,1367,cs),
(1280,1336,o),
(1317,1303,o),
(1352,1268,c),
(1526,1457,l),
(1920,1307,l),
(1856,1175,l),
(1577,1292,l),
(1458,1155,l),
(1509,1091,o),
(1547,1024,o),
(1574,955,cs),
(1600,886,o),
(1613,810,o),
(1613,728,cs),
(1613,647,o),
(1600,572,o),
(1574,503,cs),
(1547,433,o),
(1509,366,o),
(1458,302,c),
(1577,165,l),
(1856,282,l),
(1920,152,l),
(1526,0,l),
(1352,189,l),
(1317,156,o),
(1280,124,o),
(1241,92,cs),
(1201,60,o),
(1158,29,o),
(1111,-2,c)
);
},
{
closed = 1;
nodes = (
(1021,121,l),
(1113,191,o),
(1189,257,o),
(1249,319,cs),
(1308,380,o),
(1353,444,o),
(1383,511,cs),
(1413,577,o),
(1428,649,o),
(1428,728,cs),
(1428,807,o),
(1413,879,o),
(1383,946,cs),
(1353,1013,o),
(1308,1077,o),
(1249,1139,cs),
(1189,1200,o),
(1113,1266,o),
(1021,1336,c),
(1013,1341,l),
(922,1271,o),
(847,1204,o),
(787,1140,cs),
(726,1076,o),
(681,1012,o),
(651,948,cs),
(621,883,o),
(606,810,o),
(606,728,cs),
(606,649,o),
(621,576,o),
(651,510,cs),
(681,444,o),
(726,380,o),
(787,319,cs),
(847,257,o),
(922,191,o),
(1013,121,c)
);
}
);
width = 2030;
}
);
unicode = 68739;
},
{
glyphname = u10C84;
layers = (
{
layerId = "A8967B45-C713-4D25-A888-91C227C40537";
shapes = (
{
closed = 1;
nodes = (
(528,1,l),
(528,1230,l),
(166,921,l),
(48,1043,l),
(544,1464,l),
(692,1464,l),
(1189,1043,l),
(1071,921,l),
(708,1230,l),
(708,1,l)
);
}
);
width = 1235;
}
);
unicode = 68740;
},
{
glyphname = u10C85;
layers = (
{
layerId = "A8967B45-C713-4D25-A888-91C227C40537";
shapes = (
{
closed = 1;
nodes = (
(550,5,l),
(54,426,l),
(172,545,l),
(534,239,l),
(534,1234,l),
(172,927,l),
(68,1047,l),
(550,1468,l),
(698,1468,l),
(1181,1047,l),
(1077,927,l),
(714,1234,l),
(714,239,l),
(1077,545,l),
(1195,426,l),
(698,5,l)
);
}
);
width = 1235;
}
);
unicode = 68741;
},
{
glyphname = u10C86;
layers = (
{
layerId = "A8967B45-C713-4D25-A888-91C227C40537";
shapes = (
{
closed = 1;
nodes = (
(248,2,l),
(248,1465,l),
(427,1465,l),
(427,978,l),
(1239,1465,l),
(1412,1465,l),
(1412,2,l),
(1233,2,l),
(1233,493,l),
(421,2,l)
);
},
{
closed = 1;
nodes = (
(427,202,l),
(1233,676,l),
(1233,1275,l),
(427,790,l)
);
}
);
width = 1658;
}
);
unicode = 68742;
},
{
glyphname = u10C87;
layers = (
{
layerId = "A8967B45-C713-4D25-A888-91C227C40537";
shapes = (
{
closed = 1;
nodes = (
(528,4,l),
(528,651,l),
(192,476,l),
(114,613,l),
(528,822,l),
(528,1467,l),
(720,1467,l),
(720,918,l),
(1057,1098,l),
(1135,958,l),
(720,742,l),
(720,4,l)
);
}
);
width = 1249;
}
);
unicode = 68743;
},
{
glyphname = u10C88;
layers = (
{
layerId = "A8967B45-C713-4D25-A888-91C227C40537";
shapes = (
{
closed = 1;
nodes = (
(8,4,l),
(489,652,l),
(108,552,l),
(60,668,l),
(546,793,l),
(44,1461,l),
(263,1461,l),
(690,875,l),
(1123,1461,l),
(1330,1461,l),
(893,882,l),
(1269,981,l),
(1300,859,l),
(825,737,l),
(1370,4,l),
(1147,4,l),
(684,645,l),
(216,4,l)
);
}
);
width = 1377;
}
);
unicode = 68744;
},
{
glyphname = u10C89;
layers = (
{
layerId = "A8967B45-C713-4D25-A888-91C227C40537";
shapes = (
{
closed = 1;
nodes = (
(273,1,o),
(273,1,o),
(172,117,c),
(229,146,o),
(281,175,o),
(328,202,cs),
(381,233,o),
(424,259,o),
(455,280,c),
(196,465,l),
(305,560,l),
(572,371,l),
(635,426,o),
(679,483,o),
(706,541,cs),
(733,599,o),
(746,662,o),
(746,731,cs),
(746,800,o),
(732,863,o),
(705,921,cs),
(678,978,o),
(631,1036,o),
(564,1093,c),
(305,908,l),
(196,1007,l),
(447,1183,l),
(408,1209,o),
(366,1236,o),
(319,1264,cs),
(272,1292,o),
(219,1321,o),
(162,1352,c),
(283,1462,l),
(343,1430,o),
(398,1399,o),
(448,1369,cs),
(497,1339,o),
(543,1309,o),
(584,1280,c),
(833,1457,l),
(931,1354,l),
(702,1190,l),
(786,1117,o),
(846,1045,o),
(881,972,cs),
(916,899,o),
(933,818,o),
(933,731,cs),
(933,644,o),
(916,564,o),
(881,492,cs),
(846,419,o),
(788,347,o),
(706,276,c),
(931,117,l),
(833,14,l),
(588,187,l),
(545,158,o),
(498,128,o),
(446,97,cs),
(393,66,o),
(336,34,o),
(273,1,c)
);
}
);
width = 1121;
}
);
unicode = 68745;
},
{
glyphname = u10C8A;
layers = (
{
layerId = "A8967B45-C713-4D25-A888-91C227C40537";
shapes = (
{
closed = 1;
nodes = (
(299,2,o),
(299,2,o),
(196,119,c),
(247,146,o),
(293,171,o),
(336,195,cs),
(378,218,o),
(417,241,o),
(453,264,c),
(364,338,o),
(300,412,o),
(262,487,cs),
(223,562,o),
(204,643,o),
(204,731,cs),
(204,819,o),
(223,901,o),
(261,976,cs),
(298,1051,o),
(362,1124,o),
(451,1197,c),
(414,1222,o),
(373,1248,o),
(329,1273,cs),
(285,1298,o),
(237,1325,o),
(186,1353,c),
(307,1463,l),
(416,1405,o),
(509,1350,o),
(584,1299,c),
(660,1350,o),
(752,1404,o),
(861,1463,c),
(983,1356,l),
(954,1341,o),
(906,1314,o),
(839,1274,cs),
(795,1248,o),
(755,1223,o),
(720,1199,c),
(808,1125,o),
(871,1051,o),
(909,977,cs),
(946,902,o),
(965,821,o),
(965,732,cs),
(965,643,o),
(946,561,o),
(908,487,cs),
(870,412,o),
(806,338,o),
(716,264,c),
(752,241,o),
(792,217,o),
(835,193,cs),
(878,169,o),
(924,144,o),
(973,119,c),
(869,2,l),
(814,31,o),
(763,60,o),
(716,87,cs),
(668,114,o),
(624,141,o),
(584,168,c),
(544,141,o),
(500,114,o),
(453,87,cs),
(405,60,o),
(354,31,o),
(299,2,c)
);
},
{
closed = 1;
nodes = (
(653,418,o),
(703,477,o),
(733,537,cs),
(762,597,o),
(777,662,o),
(777,731,cs),
(777,800,o),
(763,865,o),
(734,924,cs),
(705,983,o),
(655,1041,o),
(584,1099,c),
(513,1040,o),
(464,981,o),
(435,923,cs),
(406,865,o),
(391,801,o),
(391,731,cs),
(391,661,o),
(406,596,o),
(436,537,cs),
(465,477,o),
(515,418,o),
(584,360,c)
);
}
);
width = 1167;
}
);
unicode = 68746;
},
{
glyphname = u10C8B;
layers = (
{
layerId = "A8967B45-C713-4D25-A888-91C227C40537";
shapes = (
{
closed = 1;
nodes = (
(558,6,l),
(176,270,l),
(291,323,o),
(384,374,o),
(456,423,cs),
(528,472,o),
(582,521,o),
(617,571,cs),
(652,621,o),
(670,676,o),
(670,735,cs),
(670,796,o),
(653,851,o),
(618,902,cs),
(583,952,o),
(530,1001,o),
(457,1050,cs),
(384,1099,o),
(290,1150,o),
(176,1204,c),
(176,1204,o),
(176,1204,o),
(558,1467,c),
(674,1360,l),
(461,1218,l),
(602,1141,o),
(704,1065,o),
(765,990,cs),
(826,915,o),
(857,830,o),
(857,735,cs),
(857,644,o),
(826,560,o),
(765,485,cs),
(703,410,o),
(602,333,o),
(461,256,c),
(674,115,l)
);
}
);
width = 1021;
}
);
unicode = 68747;
},
{
glyphname = u10C8C;
layers = (
{
layerId = "A8967B45-C713-4D25-A888-91C227C40537";
shapes = (
{
closed = 1;
nodes = (
(859,6,o),
(859,6,o),
(674,6,c),
(567,77,o),
(476,149,o),
(400,222,cs),
(323,295,o),
(265,373,o),
(224,456,cs),
(183,539,o),
(162,633,o),
(162,736,cs),
(162,839,o),
(183,933,o),
(224,1017,cs),
(265,1100,o),
(323,1179,o),
(400,1252,cs),
(476,1325,o),
(567,1396,o),
(672,1467,c),
(859,1467,l),
(966,1396,o),
(1057,1325,o),
(1133,1252,cs),
(1209,1179,o),
(1268,1100,o),
(1309,1017,cs),
(1350,933,o),
(1370,839,o),
(1370,736,cs),
(1370,632,o),
(1350,539,o),
(1309,456,cs),
(1268,373,o),
(1209,295,o),
(1133,222,cs),
(1057,149,o),
(966,77,o),
(859,6,c)
);
},
{
closed = 1;
nodes = (
(769,826,l),
(1041,1109,l),
(1008,1148,o),
(970,1186,o),
(929,1224,cs),
(888,1262,o),
(838,1302,o),
(779,1345,c),
(752,1346,l),
(657,1278,o),
(571,1200,o),
(493,1111,c)
);
},
{
closed = 1;
nodes = (
(676,732,l),
(417,1006,l),
(370,926,o),
(347,836,o),
(347,736,cs),
(347,683,o),
(353,635,o),
(365,592,cs),
(377,548,o),
(395,505,o),
(419,464,c)
);
},
{
closed = 1;
nodes = (
(1117,469,l),
(1162,548,o),
(1185,637,o),
(1185,736,cs),
(1185,835,o),
(1162,923,o),
(1117,1000,c),
(861,732,l)
);
},
{
closed = 1;
nodes = (
(769,133,l),
(839,183,o),
(889,221,o),
(919,246,cs),
(963,283,o),
(1002,321,o),
(1035,360,c),
(769,637,l),
(501,355,l),
(534,318,o),
(572,282,o),
(613,246,cs),
(654,210,o),
(702,172,o),
(757,132,c)
);
}
);
width = 1533;
}
);
unicode = 68748;
},
{
glyphname = u10C8D;
layers = (
{
layerId = "A8967B45-C713-4D25-A888-91C227C40537";
shapes = (
{
closed = 1;
nodes = (
(48,3,l),
(724,1461,l),
(897,1461,l),
(1561,9,l),
(1364,9,l),
(1084,625,l),
(804,6,l),
(616,6,l),
(984,827,l),
(956,903,ls),
(914,1012,o),
(891,1073,o),
(887,1084,cs),
(859,1165,o),
(836,1220,o),
(819,1251,c),
(800,1251,l),
(778,1194,o),
(756,1138,o),
(733,1082,c),
(733,1082,o),
(733,1082,o),
(646,891,cs),
(248,3,l)
);
}
);
width = 1596;
}
);
unicode = 68749;
},
{
glyphname = u10C8E;
layers = (
{
layerId = "A8967B45-C713-4D25-A888-91C227C40537";
shapes = (
{
closed = 1;
nodes = (
(528,6,l),
(528,389,l),
(192,228,l),
(114,355,l),
(528,554,l),
(528,821,l),
(192,662,l),
(114,787,l),
(528,986,l),
(528,1467,l),
(720,1467,l),
(720,1077,l),
(1057,1236,l),
(1135,1107,l),
(720,910,l),
(720,645,l),
(1057,804,l),
(1135,675,l),
(720,478,l),
(720,6,l)
);
}
);
width = 1243;
}
);
unicode = 68750;
},
{
glyphname = u10C8F;
layers = (
{
layerId = "A8967B45-C713-4D25-A888-91C227C40537";
shapes = (
{
closed = 1;
nodes = (
(128,3,l),
(588,370,l),
(102,759,l),
(588,1123,l),
(128,1464,l),
(367,1464,l),
(706,1209,l),
(1043,1464,l),
(1286,1464,l),
(825,1123,l),
(1314,759,l),
(825,370,l),
(1286,3,l),
(1043,3,l),
(706,277,l),
(371,3,l)
);
},
{
closed = 1;
nodes = (
(706,470,l),
(1065,761,l),
(706,1030,l),
(347,761,l)
);
}
);
width = 1415;
}
);
unicode = 68751;
},
{
glyphname = u10C90;
layers = (
{
layerId = "A8967B45-C713-4D25-A888-91C227C40537";
shapes = (
{
closed = 1;
nodes = (
(528,4,l),
(528,893,l),
(192,722,l),
(114,857,l),
(528,1071,l),
(528,1465,l),
(720,1465,l),
(720,1169,l),
(1057,1340,l),
(1135,1201,l),
(720,989,l),
(720,4,l)
);
}
);
width = 1249;
}
);
unicode = 68752;
},
{
glyphname = u10C91;
layers = (
{
layerId = "A8967B45-C713-4D25-A888-91C227C40537";
shapes = (
{
closed = 1;
nodes = (
(554,3,l),
(554,1211,l),
(192,1042,l),
(114,1168,l),
(1057,1610,l),
(1135,1483,l),
(751,1301,l),
(751,3,l)
);
}
);
width = 1249;
}
);
unicode = 68753;
},
{
glyphname = u10C92;
layers = (
{
layerId = "A8967B45-C713-4D25-A888-91C227C40537";
shapes = (
{
closed = 1;
nodes = (
(646,0,l),
(646,1225,l),
(172,782,l),
(62,896,l),
(672,1463,l),
(823,1463,l),
(823,0,l)
);
}
);
width = 1089;
}
);
unicode = 68754;
},
{
glyphname = u10C93;
layers = (
{
layerId = "A8967B45-C713-4D25-A888-91C227C40537";
shapes = (
{
closed = 1;
nodes = (
(592,0,l),
(112,731,l),
(592,1463,l),
(775,1463,l),
(1255,731,l),
(775,0,l)
);
},
{
closed = 1;
nodes = (
(684,162,l),
(1053,731,l),
(684,1303,l),
(311,731,l)
);
}
);
width = 1363;
}
);
unicode = 68755;
},
{
glyphname = u10C94;
layers = (
{
layerId = "A8967B45-C713-4D25-A888-91C227C40537";
shapes = (
{
closed = 1;
nodes = (
(528,4,l),
(528,1233,l),
(166,924,l),
(48,1046,l),
(544,1467,l),
(708,1467,l),
(708,236,l),
(1071,546,l),
(1189,425,l),
(692,4,l)
);
}
);
width = 1221;
}
);
unicode = 68756;
},
{
glyphname = u10C95;
layers = (
{
layerId = "A8967B45-C713-4D25-A888-91C227C40537";
shapes = (
{
closed = 1;
nodes = (
(479,5,l),
(64,167,l),
(132,280,l),
(397,170,l),
(813,741,l),
(409,1297,l),
(144,1188,l),
(76,1301,l),
(491,1466,l),
(903,874,l),
(1318,1466,l),
(1731,1301,l),
(1665,1188,l),
(1398,1297,l),
(995,741,l),
(1410,170,l),
(1677,280,l),
(1743,167,l),
(1330,5,l),
(903,608,l)
);
}
);
width = 1808;
}
);
unicode = 68757;
},
{
glyphname = u10C96;
layers = (
{
layerId = "A8967B45-C713-4D25-A888-91C227C40537";
shapes = (
{
closed = 1;
nodes = (
(36,3,l),
(718,1463,l),
(889,1463,l),
(1563,-1,l),
(1366,-1,l),
(1223,317,l),
(1079,2,l),
(903,2,l),
(1135,508,l),
(1015,772,l),
(666,-1,l),
(487,-1,l),
(923,972,l),
(899,1029,o),
(877,1082,o),
(857,1130,cs),
(837,1178,o),
(820,1225,o),
(805,1270,c),
(797,1270,l),
(786,1238,o),
(766,1188,o),
(739,1119,cs),
(720,1073,o),
(695,1014,o),
(662,943,cs),
(236,3,l)
);
}
);
width = 1596;
}
);
unicode = 68758;
},
{
glyphname = u10C97;
layers = (
{
layerId = "A8967B45-C713-4D25-A888-91C227C40537";
shapes = (
{
closed = 1;
nodes = (
(859,5,o),
(859,5,o),
(674,5,c),
(570,76,o),
(481,148,o),
(406,221,cs),
(331,294,o),
(273,372,o),
(232,455,cs),
(191,538,o),
(170,632,o),
(170,737,cs),
(170,839,o),
(190,932,o),
(231,1016,cs),
(271,1099,o),
(329,1178,o),
(405,1251,cs),
(480,1324,o),
(569,1395,o),
(672,1466,c),
(859,1466,l),
(963,1395,o),
(1053,1324,o),
(1128,1251,cs),
(1203,1178,o),
(1261,1099,o),
(1302,1016,cs),
(1342,932,o),
(1362,839,o),
(1362,737,cs),
(1362,632,o),
(1342,538,o),
(1302,455,cs),
(1261,372,o),
(1203,294,o),
(1128,221,cs),
(1053,148,o),
(963,76,o),
(859,5,c)
);
},
{
closed = 1;
nodes = (
(1035,1110,l),
(1002,1147,o),
(963,1185,o),
(919,1223,cs),
(875,1261,o),
(825,1301,o),
(769,1344,c),
(762,1344,l),
(671,1275,o),
(596,1209,o),
(536,1148,cs),
(475,1087,o),
(430,1023,o),
(400,958,cs),
(370,892,o),
(355,818,o),
(355,737,cs),
(355,643,o),
(375,558,o),
(415,483,c)
);
},
{
closed = 1;
nodes = (
(769,129,l),
(861,198,o),
(937,263,o),
(997,324,cs),
(1057,385,o),
(1103,439,o),
(1136,486,cs),
(1168,533,o),
(1184,613,o),
(1184,726,cs),
(1184,829,o),
(1160,922,o),
(1113,1005,c),
(499,363,l),
(532,324,o),
(570,286,o),
(613,249,cs),
(656,211,o),
(704,171,o),
(759,128,c)
);
}
);
width = 1531;
}
);
unicode = 68759;
},
{
glyphname = u10C98;
layers = (
{
layerId = "A8967B45-C713-4D25-A888-91C227C40537";
shapes = (
{
closed = 1;
nodes = (
(761,4,l),
(204,378,l),
(204,541,l),
(574,715,l),
(204,942,l),
(204,1108,l),
(761,1465,l),
(951,1465,l),
(951,4,l)
);
},
{
closed = 1;
nodes = (
(771,782,l),
(771,1291,l),
(371,1022,l)
);
},
{
closed = 1;
nodes = (
(771,172,l),
(771,640,l),
(371,448,l)
);
}
);
width = 1210;
}
);
unicode = 68760;
},
{
glyphname = u10C99;
layers = (
{
layerId = "A8967B45-C713-4D25-A888-91C227C40537";
shapes = (
{
closed = 1;
nodes = (
(236,0,o),
(236,0,o),
(134,116,c),
(277,190,o),
(390,259,o),
(475,323,cs),
(560,387,o),
(621,451,o),
(658,515,cs),
(695,578,o),
(714,650,o),
(714,729,cs),
(714,787,o),
(704,841,o),
(684,892,cs),
(664,943,o),
(631,991,o),
(586,1038,cs),
(541,1085,o),
(480,1134,o),
(405,1185,cs),
(329,1236,o),
(235,1292,o),
(124,1352,c),
(246,1461,l),
(409,1376,o),
(538,1295,o),
(633,1219,cs),
(728,1143,o),
(796,1066,o),
(838,987,cs),
(880,908,o),
(901,822,o),
(901,729,cs),
(901,635,o),
(880,549,o),
(837,471,cs),
(794,393,o),
(725,317,o),
(629,242,cs),
(532,167,o),
(401,87,o),
(236,0,c)
);
}
);
width = 1071;
}
);
unicode = 68761;
},
{
glyphname = u10C9A;
layers = (
{
layerId = "A8967B45-C713-4D25-A888-91C227C40537";
shapes = (
{
closed = 1;
nodes = (
(423,1,o),
(423,1,o),
(244,1,c),
(244,1462,l),
(423,1462,l),
(590,1383,o),
(723,1307,o),
(821,1233,cs),
(921,1157,o),
(994,1078,o),
(1041,996,cs),
(1088,914,o),
(1111,825,o),
(1111,729,cs),
(1111,632,o),
(1088,543,o),
(1042,461,cs),
(996,378,o),
(923,300,o),
(822,227,cs),
(721,154,o),
(588,78,o),
(423,1,c)
);
},
{
closed = 1;
nodes = (
(423,175,l),
(543,234,o),
(639,290,o),
(712,345,cs),
(785,399,o),
(838,458,o),
(872,521,cs),
(906,585,o),
(923,654,o),
(923,729,cs),
(923,805,o),
(907,874,o),
(874,937,cs),
(841,1000,o),
(789,1060,o),
(716,1117,cs),
(643,1174,o),
(545,1234,o),
(423,1297,c)
);
}
);
width = 1261;
}
);
unicode = 68762;
},
{
glyphname = u10C9B;
layers = (
{
layerId = "A8967B45-C713-4D25-A888-91C227C40537";
shapes = (
{
closed = 1;
nodes = (
(580,7,o),
(580,7,o),
(110,365,c),
(234,465,l),
(596,188,l),
(676,244,o),
(740,299,o),
(789,353,cs),
(837,406,o),
(872,463,o),
(894,524,cs),
(916,585,o),
(927,652,o),
(927,726,cs),
(927,800,o),
(916,866,o),
(894,925,cs),
(872,983,o),
(836,1040,o),
(785,1095,cs),
(734,1150,o),
(664,1209,o),
(576,1271,c),
(234,1010,l),
(110,1110,l),
(580,1468,l),
(711,1380,o),
(815,1298,o),
(894,1221,cs),
(972,1144,o),
(1028,1066,o),
(1063,988,cs),
(1098,910,o),
(1115,823,o),
(1115,726,cs),
(1115,623,o),
(1095,532,o),
(1056,453,cs),
(1017,373,o),
(958,298,o),
(879,227,cs),
(800,156,o),
(700,82,o),
(580,7,c)
);
}
);
width = 1263;
}
);
unicode = 68763;
},
{
glyphname = u10C9C;
layers = (
{
layerId = "A8967B45-C713-4D25-A888-91C227C40537";
shapes = (
{
closed = 1;
nodes = (
(620,4,o),
(620,4,o),
(74,445,c),
(481,815,l),
(600,712,l),
(317,457,l),
(636,194,l),
(753,282,o),
(837,367,o),
(887,449,cs),
(936,530,o),
(961,620,o),
(961,719,cs),
(961,796,o),
(947,866,o),
(918,930,cs),
(889,993,o),
(842,1058,o),
(776,1123,cs),
(709,1188,o),
(618,1261,o),
(501,1342,c),
(620,1465,l),
(751,1374,o),
(855,1289,o),
(934,1210,cs),
(1012,1131,o),
(1068,1052,o),
(1103,973,cs),
(1138,894,o),
(1155,809,o),
(1155,719,cs),
(1155,626,o),
(1135,540,o),
(1096,461,cs),
(1057,381,o),
(998,304,o),
(919,231,cs),
(840,158,o),
(740,83,o),
(620,4,c)
);
}
);
width = 1311;
}
);
unicode = 68764;
},
{
glyphname = u10C9D;
layers = (
{
layerId = "A8967B45-C713-4D25-A888-91C227C40537";
shapes = (
{
closed = 1;
nodes = (
(610,-2,l),
(152,572,l),
(564,918,l),
(172,1343,l),
(319,1461,l),
(809,918,l),
(399,570,l),
(775,116,l)
);
}
);
width = 961;
}
);
unicode = 68765;
},
{
glyphname = u10C9E;
layers = (
{
layerId = "A8967B45-C713-4D25-A888-91C227C40537";
shapes = (
{
closed = 1;
nodes = (
(246,2,l),
(246,1463,l),
(425,1463,l),
(425,748,l),
(973,1464,l),
(1191,1464,l),
(632,754,l),
(1209,3,l),
(981,3,l),
(425,744,l),
(425,2,l)
);
}
);
width = 1243;
}
);
unicode = 68766;
},
{
glyphname = u10C9F;
layers = (
{
layerId = "A8967B45-C713-4D25-A888-91C227C40537";
shapes = (
{
closed = 1;
nodes = (
(621,7,o),
(621,7,o),
(79,439,c),
(85,441,l),
(75,445,l),
(482,810,l),
(609,706,l),
(326,452,l),
(639,195,l),
(682,228,o),
(720,259,o),
(753,289,cs),
(786,318,o),
(815,348,o),
(840,378,c),
(727,463,l),
(822,554,l),
(914,487,l),
(950,560,o),
(968,638,o),
(968,721,cs),
(968,808,o),
(949,888,o),
(910,962,c),
(822,898,l),
(727,990,l),
(834,1069,l),
(797,1110,o),
(751,1153,o),
(697,1198,cs),
(643,1243,o),
(578,1293,o),
(502,1346,c),
(621,1467,l),
(698,1413,o),
(766,1362,o),
(825,1314,cs),
(883,1266,o),
(933,1219,o),
(974,1172,c),
(1150,1302,l),
(1246,1207,l),
(1054,1067,l),
(1090,1013,o),
(1116,958,o),
(1132,902,cs),
(1148,845,o),
(1156,785,o),
(1156,721,cs),
(1156,596,o),
(1121,484,o),
(1052,384,c),
(1252,239,l),
(1156,147,l),
(970,283,l),
(927,237,o),
(877,192,o),
(820,147,cs),
(762,102,o),
(696,55,o),
(621,7,c)
);
}
);
width = 1443;
}
);
unicode = 68767;
},
{
glyphname = u10CA0;
layers = (
{
layerId = "A8967B45-C713-4D25-A888-91C227C40537";
shapes = (
{
closed = 1;
nodes = (
(232,-36,l),
(122,68,l),
(660,472,l),
(660,760,l),
(232,449,l),
(122,552,l),
(660,960,l),
(660,1251,l),
(232,937,l),
(122,1041,l),
(678,1465,l),
(839,1465,l),
(839,4,l),
(660,4,l),
(660,274,l)
);
}
);
width = 1092;
}
);
unicode = 68768;
},
{
glyphname = u10CA1;
layers = (
{
layerId = "A8967B45-C713-4D25-A888-91C227C40537";
shapes = (
{
closed = 1;
nodes = (
(706,181,o),
(706,181,o),
(469,-48,c),
(339,56,l),
(598,288,l),
(557,337,o),
(522,387,o),
(494,438,cs),
(465,489,o),
(444,543,o),
(429,600,c),
(160,459,l),
(78,593,l),
(415,750,l),
(416,821,o),
(430,891,o),
(455,962,cs),
(480,1033,o),
(523,1103,o),
(584,1170,c),
(580,1176,l),
(319,1059,l),
(242,1195,l),
(925,1471,l),
(1123,1471,l),
(1806,1195,l),
(1729,1059,l),
(1466,1176,l),
(1460,1170,l),
(1523,1103,o),
(1565,1034,o),
(1586,963,cs),
(1607,892,o),
(1618,821,o),
(1619,750,c),
(1956,593,l),
(1872,459,l),
(1603,600,l),
(1578,491,o),
(1522,387,o),
(1436,288,c),
(1707,56,l),
(1579,-48,l),
(1330,181,l),
(1297,152,o),
(1264,124,o),
(1231,95,cs),
(1197,66,o),
(1161,37,o),
(1123,10,c),
(927,10,l),
(905,24,o),
(866,52,o),
(811,95,cs),
(786,114,o),
(751,142,o),
(706,181,c)
);
},
{
closed = 1;
nodes = (
(1031,137,l),
(1163,226,o),
(1265,318,o),
(1338,415,cs),
(1410,511,o),
(1446,623,o),
(1446,751,cs),
(1446,874,o),
(1413,985,o),
(1346,1083,cs),
(1279,1181,o),
(1174,1266,o),
(1031,1339,c),
(1023,1339,l),
(882,1266,o),
(777,1181,o),
(710,1084,cs),
(642,986,o),
(608,875,o),
(608,751,cs),
(608,622,o),
(645,510,o),
(718,414,cs),
(791,318,o),
(892,226,o),
(1023,137,c)
);
}
);
width = 2048;
}
);
unicode = 68769;
},
{
glyphname = u10CA2;
layers = (
{
layerId = "A8967B45-C713-4D25-A888-91C227C40537";
shapes = (
{
closed = 1;
nodes = (
(259,5,l),
(259,1466,l),
(439,1466,l),
(439,629,l),
(1223,1124,l),
(1223,1466,l),
(1402,1466,l),
(1402,5,l),
(1223,5,l),
(1223,938,l),
(439,454,l),
(439,5,l)
);
}
);
width = 1658;
}
);
unicode = 68770;
},
{
glyphname = u10CA3;
layers = (
{
layerId = "A8967B45-C713-4D25-A888-91C227C40537";
shapes = (
{
closed = 1;
nodes = (
(186,373,l),
(104,520,l),
(1025,1065,l),
(1109,917,l)
);
}
);
width = 1221;
}
);
unicode = 68771;
},
{
glyphname = u10CA4;
layers = (
{
layerId = "A8967B45-C713-4D25-A888-91C227C40537";
shapes = (
{
closed = 1;
nodes = (
(26,1,l),
(638,1461,l),
(819,1461,l),
(1420,1,l),
(1231,1,l),
(845,943,ls),
(818,1010,o),
(795,1066,o),
(778,1112,cs),
(757,1167,o),
(740,1217,o),
(726,1264,c),
(718,1264,l),
(699,1201,o),
(682,1150,o),
(666,1112,cs),
(663,1106,o),
(640,1048,o),
(596,939,cs),
(216,1,l)
);
}
);
width = 1443;
}
);
unicode = 68772;
},
{
glyphname = u10CA5;
layers = (
{
layerId = "A8967B45-C713-4D25-A888-91C227C40537";
shapes = (
{
closed = 1;
nodes = (
(248,4,l),
(248,1465,l),
(427,1465,l),
(427,4,l)
);
}
);
width = 679;
}
);
unicode = 68773;
},
{
glyphname = u10CA6;
layers = (
{
layerId = "A8967B45-C713-4D25-A888-91C227C40537";
shapes = (
{
closed = 1;
nodes = (
(710,3,l),
(710,546,l),
(70,1371,l),
(214,1461,l),
(710,803,l),
(710,1464,l),
(889,1464,l),
(889,3,l)
);
}
);
width = 1129;
}
);
unicode = 68774;
},
{
glyphname = u10CA7;
layers = (
{
layerId = "A8967B45-C713-4D25-A888-91C227C40537";
shapes = (
{
closed = 1;
nodes = (
(773,2,l),
(773,842,l),
(369,1243,l),
(152,1032,l),
(40,1141,l),
(375,1461,l),
(773,1060,l),
(773,1463,l),
(953,1463,l),
(953,1058,l),
(1354,1461,l),
(1689,1141,l),
(1575,1032,l),
(1358,1243,l),
(953,840,l),
(953,2,l)
);
}
);
width = 1726;
}
);
unicode = 68775;
},
{
glyphname = u10CA8;
layers = (
{
layerId = "A8967B45-C713-4D25-A888-91C227C40537";
shapes = (
{
closed = 1;
nodes = (
(534,0,l),
(830,428,l),
(674,643,l),
(216,2,l),
(8,2,l),
(581,755,l),
(44,1461,l),
(263,1461,l),
(453,1204,l),
(632,1461,l),
(823,1461,l),
(558,1074,l),
(690,891,l),
(1123,1461,l),
(1330,1461,l),
(796,766,l),
(1370,2,l),
(1147,2,l),
(933,297,l),
(726,0,l)
);
}
);
width = 1377;
}
);
unicode = 68776;
},
{
glyphname = u10CA9;
layers = (
{
layerId = "A8967B45-C713-4D25-A888-91C227C40537";
shapes = (
{
closed = 1;
nodes = (
(1213,2,l),
(640,135,l),
(690,261,l),
(1091,160,l),
(704,641,l),
(210,3,l),
(10,3,l),
(605,751,l),
(40,1461,l),
(253,1461,l),
(712,881,l),
(1053,1300,l),
(648,1198,l),
(606,1322,l),
(1177,1460,l),
(1288,1377,l),
(808,767,l),
(1330,124,l)
);
}
);
width = 1433;
}
);
unicode = 68777;
},
{
glyphname = u10CAA;
layers = (
{
layerId = "A8967B45-C713-4D25-A888-91C227C40537";
shapes = (
{
closed = 1;
nodes = (
(248,1,l),
(248,1462,l),
(423,1462,l),
(871,1135,l),
(1320,1462,l),
(1496,1462,l),
(1496,1,l),
(1320,1,l),
(871,330,l),
(423,1,l)
);
},
{
closed = 1;
nodes = (
(427,203,l),
(871,517,l),
(1316,203,l),
(1316,1260,l),
(871,945,l),
(427,1260,l)
);
}
);
width = 1764;
}
);
unicode = 68778;
},
{
glyphname = u10CAB;
layers = (
{
layerId = "A8967B45-C713-4D25-A888-91C227C40537";
shapes = (
{
closed = 1;
nodes = (
(244,0,l),
(244,1461,l),
(407,1461,l),
(953,840,l),
(1506,1461,l),
(1669,1461,l),
(1669,0,l),
(1506,0,l),
(953,634,l),
(407,0,l)
);
},
{
closed = 1;
nodes = (
(1051,736,l),
(1495,235,l),
(1498,1246,l)
);
},
{
closed = 1;
nodes = (
(407,1221,l),
(399,230,l),
(857,739,l)
);
}
);
width = 1900;
}
);
unicode = 68779;
},
{
glyphname = u10CAC;
layers = (
{
layerId = "A8967B45-C713-4D25-A888-91C227C40537";
shapes = (
{
closed = 1;
nodes = (
(435,188,o),
(435,188,o),
(212,-28,c),
(82,76,l),
(329,299,l),
(278,362,o),
(239,428,o),
(211,499,cs),
(184,570,o),
(170,647,o),
(170,730,cs),
(170,814,o),
(184,891,o),
(212,962,cs),
(240,1033,o),
(279,1101,o),
(329,1165,c),
(82,1384,l),
(212,1489,l),
(435,1273,l),
(470,1307,o),
(506,1339,o),
(545,1370,cs),
(584,1401,o),
(627,1431,o),
(672,1461,c),
(859,1461,l),
(904,1429,o),
(947,1398,o),
(988,1368,cs),
(1029,1337,o),
(1066,1306,o),
(1099,1273,c),
(1322,1489,l),
(1450,1384,l),
(1203,1163,l),
(1254,1100,o),
(1293,1033,o),
(1320,961,cs),
(1347,890,o),
(1361,813,o),
(1362,730,cs),
(1362,646,o),
(1348,569,o),
(1320,500,cs),
(1293,430,o),
(1254,363,o),
(1203,299,c),
(1452,76,l),
(1322,-28,l),
(1099,188,l),
(1064,155,o),
(1027,124,o),
(987,93,cs),
(956,70,o),
(914,39,o),
(859,0,c),
(674,0,l),
(619,39,o),
(577,70,o),
(546,93,c),
(507,124,o),
(470,155,o),
(435,188,c)
);
},
{
closed = 1;
nodes = (
(769,125,l),
(861,193,o),
(937,258,o),
(997,319,cs),
(1057,380,o),
(1102,444,o),
(1132,510,cs),
(1162,576,o),
(1177,649,o),
(1177,730,cs),
(1177,811,o),
(1162,885,o),
(1132,951,cs),
(1102,1017,o),
(1057,1081,o),
(997,1144,cs),
(937,1206,o),
(861,1271,o),
(769,1339,c),
(762,1339,l),
(671,1271,o),
(596,1206,o),
(536,1144,cs),
(475,1081,o),
(430,1017,o),
(400,951,cs),
(370,885,o),
(355,811,o),
(355,730,cs),
(355,649,o),
(370,575,o),
(400,510,cs),
(430,444,o),
(475,380,o),
(536,319,cs),
(596,258,o),
(671,193,o),
(762,125,c)
);
}
);
width = 1533;
}
);
unicode = 68780;
},
{
glyphname = u10CAD;
layers = (
{
layerId = "A8967B45-C713-4D25-A888-91C227C40537";
shapes = (
{
closed = 1;
nodes = (
(1131,2,l),
(1131,873,l),
(439,363,l),
(259,363,l),
(259,1461,l),
(439,1461,l),
(439,558,l),
(1131,1077,l),
(1310,1077,l),
(1310,2,l)
);
}
);
width = 1570;
}
);
unicode = 68781;
},
{
glyphname = u10CAE;
layers = (
{
layerId = "A8967B45-C713-4D25-A888-91C227C40537";
shapes = (
{
closed = 1;
nodes = (
(248,4,l),
(248,1465,l),
(423,1465,l),
(871,1138,l),
(1320,1465,l),
(1496,1465,l),
(1496,4,l),
(1316,4,l),
(1316,1263,l),
(871,946,l),
(427,1263,l),
(427,4,l)
);
}
);
width = 1770;
}
);
unicode = 68782;
},
{
glyphname = u10CAF;
layers = (
{
layerId = "A8967B45-C713-4D25-A888-91C227C40537";
shapes = (
{
closed = 1;
nodes = (
(242,4,l),
(242,1465,l),
(421,1465,l),
(421,982,l),
(1233,1465,l),
(1406,1465,l),
(1406,4,l),
(1227,4,l),
(1227,491,l),
(415,4,l)
);
},
{
closed = 1;
nodes = (
(421,582,l),
(1227,1061,l),
(1227,1293,l),
(421,814,l)
);
},
{
closed = 1;
nodes = (
(421,183,l),
(1227,661,l),
(1227,893,l),
(421,415,l)
);
}
);
width = 1634;
}
);
unicode = 68783;
},
{
glyphname = u10CB0;
layers = (
{
layerId = "A8967B45-C713-4D25-A888-91C227C40537";
shapes = (
{
closed = 1;
nodes = (
(698,1,l),
(698,546,l),
(20,1365,l),
(168,1461,l),
(698,813,l),
(698,1462,l),
(877,1462,l),
(877,822,l),
(1408,1461,l),
(1555,1365,l),
(877,546,l),
(877,1,l)
);
}
);
width = 1586;
}
);
unicode = 68784;
},
{
glyphname = u10CB1;
layers = (
{
layerId = "A8967B45-C713-4D25-A888-91C227C40537";
shapes = (
{
closed = 1;
nodes = (
(771,3,l),
(389,264,l),
(172,49,l),
(60,162,l),
(395,480,l),
(771,195,l),
(771,447,l),
(389,767,l),
(172,552,l),
(60,663,l),
(395,983,l),
(771,660,l),
(771,913,l),
(389,1269,l),
(172,1051,l),
(60,1162,l),
(395,1482,l),
(771,1127,l),
(771,1464,l),
(951,1464,l),
(951,1127,l),
(1330,1482,l),
(1665,1162,l),
(1551,1051,l),
(1334,1264,l),
(951,913,l),
(951,653,l),
(1330,986,l),
(1665,666,l),
(1551,555,l),
(1334,770,l),
(951,440,l),
(951,195,l),
(1330,480,l),
(1665,162,l),
(1549,49,l),
(1334,264,l),
(951,3,l)
);
}
);
width = 1726;
}
);
unicode = 68785;
},
{
glyphname = u10CB2;
layers = (
{
layerId = "A8967B45-C713-4D25-A888-91C227C40537";
shapes = (
{
closed = 1;
nodes = (
(865,4,o),
(865,4,o),
(668,4,c),
(565,76,o),
(476,148,o),
(399,221,cs),
(322,294,o),
(262,373,o),
(220,456,cs),
(177,539,o),
(156,632,o),
(156,734,cs),
(156,837,o),
(177,930,o),
(220,1014,cs),
(262,1097,o),
(322,1176,o),
(399,1249,cs),
(476,1322,o),
(566,1394,o),
(668,1465,c),
(865,1465,l),
(969,1394,o),
(1059,1322,o),
(1136,1249,cs),
(1213,1175,o),
(1272,1096,o),
(1315,1013,cs),
(1357,930,o),
(1378,837,o),
(1378,734,cs),
(1378,631,o),
(1357,539,o),
(1315,456,cs),
(1272,373,o),
(1213,294,o),
(1136,221,cs),
(1059,148,o),
(969,76,o),
(865,4,c)
);
},
{
closed = 1;
nodes = (
(682,1293,l),
(606,1232,o),
(543,1173,o),
(494,1116,cs),
(444,1059,o),
(407,999,o),
(382,938,cs),
(357,877,o),
(345,809,o),
(345,734,cs),
(345,659,o),
(357,592,o),
(382,531,cs),
(407,470,o),
(444,412,o),
(494,355,cs),
(543,298,o),
(606,239,o),
(682,177,c)
);
},
{
closed = 1;
nodes = (
(851,178,l),
(929,242,o),
(992,301,o),
(1040,355,cs),
(1090,412,o),
(1127,471,o),
(1151,532,cs),
(1175,593,o),
(1187,660,o),
(1187,734,cs),
(1187,809,o),
(1175,877,o),
(1151,938,cs),
(1127,999,o),
(1090,1059,o),
(1040,1116,cs),
(990,1173,o),
(927,1232,o),
(851,1293,c)
);
}
);
width = 1533;
}
);
unicode = 68786;
},
{
glyphname = u10CC0;
layers = (
{
layerId = "A8967B45-C713-4D25-A888-91C227C40537";
shapes = (
{
closed = 1;
nodes = (
(522,2,l),
(522,558,l),
(64,558,l),
(64,749,l),
(459,1100,l),
(696,1100,l),
(696,2,l)
);
},
{
closed = 1;
nodes = (
(522,696,l),
(522,964,l),
(216,699,l)
);
}
);
width = 885;
}
);
unicode = 68800;
},
{
glyphname = u10CC1;
layers = (
{
layerId = "A8967B45-C713-4D25-A888-91C227C40537";
shapes = (
{
closed = 1;
nodes = (
(501,2,l),
(501,300,l),
(84,612,l),
(84,758,l),
(505,1100,l),
(674,1100,l),
(674,2,l)
);
},
{
closed = 1;
nodes = (
(501,490,l),
(501,907,l),
(236,687,l)
);
}
);
width = 863;
}
);
unicode = 68801;
},
{
glyphname = u10CC2;
layers = (
{
layerId = "A8967B45-C713-4D25-A888-91C227C40537";
shapes = (
{
closed = 1;
nodes = (
(20,2,l),
(433,572,l),
(44,1100,l),
(242,1100,l),
(538,683,l),
(835,1100,l),
(1023,1100,l),
(640,576,l),
(1053,2,l),
(851,2,l),
(532,466,l),
(208,2,l)
);
}
);
width = 1071;
}
);
unicode = 68802;
},
{
glyphname = u10CC3;
layers = (
{
layerId = "A8967B45-C713-4D25-A888-91C227C40537";
shapes = (
{
closed = 1;
nodes = (
(512,141,o),
(512,141,o),
(385,3,c),
(80,124,l),
(140,245,l),
(339,158,l),
(415,247,l),
(382,292,o),
(356,341,o),
(337,392,cs),
(318,443,o),
(309,497,o),
(309,555,cs),
(309,612,o),
(318,666,o),
(337,717,cs),
(356,768,o),
(382,816,o),
(415,861,c),
(339,950,l),
(140,861,l),
(80,986,l),
(385,1106,l),
(511,968,l),
(538,993,o),
(565,1015,o),
(594,1036,cs),
(622,1057,o),
(652,1079,o),
(684,1102,c),
(821,1102,l),
(852,1080,o),
(881,1059,o),
(910,1038,cs),
(939,1017,o),
(966,995,o),
(991,972,c),
(1115,1106,l),
(1418,986,l),
(1362,861,l),
(1159,950,l),
(1087,867,l),
(1123,822,o),
(1151,773,o),
(1170,722,cs),
(1189,671,o),
(1199,615,o),
(1199,555,cs),
(1199,495,o),
(1189,440,o),
(1170,389,cs),
(1151,338,o),
(1123,290,o),
(1087,243,c),
(1159,158,l),
(1362,245,l),
(1418,124,l),
(1115,3,l),
(991,139,l),
(966,116,o),
(939,93,o),
(910,71,cs),
(881,49,o),
(852,27,o),
(821,5,c),
(684,5,l),
(620,49,o),
(563,94,o),
(512,141,c)
);
},
{
closed = 1;
nodes = (
(756,123,l),
(852,198,o),
(922,267,o),
(967,331,cs),
(1011,395,o),
(1033,470,o),
(1033,555,cs),
(1033,641,o),
(1010,716,o),
(965,780,cs),
(920,844,o),
(850,913,o),
(756,988,c),
(752,988,l),
(688,938,o),
(635,891,o),
(594,847,cs),
(553,802,o),
(523,757,o),
(504,711,cs),
(485,664,o),
(475,612,o),
(475,555,cs),
(475,496,o),
(485,444,o),
(505,398,cs),
(524,351,o),
(554,306,o),
(595,263,cs),
(636,220,o),
(688,173,o),
(752,123,c)
);
}
);
width = 1497;
}
);
unicode = 68803;
},
{
glyphname = u10CC4;
layers = (
{
layerId = "A8967B45-C713-4D25-A888-91C227C40537";
shapes = (
{
closed = 1;
nodes = (
(359,1,l),
(359,896,l),
(106,691,l),
(8,793,l),
(389,1098,l),
(503,1098,l),
(883,793,l),
(785,691,l),
(532,896,l),
(532,1,l)
);
}
);
width = 891;
}
);
unicode = 68804;
},
{
glyphname = u10CC5;
layers = (
{
layerId = "A8967B45-C713-4D25-A888-91C227C40537";
shapes = (
{
closed = 1;
nodes = (
(389,2,l),
(8,306,l),
(106,413,l),
(359,208,l),
(359,897,l),
(106,692,l),
(8,795,l),
(389,1100,l),
(503,1100,l),
(883,795,l),
(785,692,l),
(532,897,l),
(532,208,l),
(785,413,l),
(883,306,l),
(503,2,l)
);
}
);
width = 891;
}
);
unicode = 68805;
},
{
glyphname = u10CC6;
layers = (
{
layerId = "A8967B45-C713-4D25-A888-91C227C40537";
shapes = (
{
closed = 1;
nodes = (
(190,0,l),
(190,1098,l),
(359,1098,l),
(359,782,l),
(885,1098,l),
(1037,1098,l),
(1037,0,l),
(867,0,l),
(867,312,l),
(341,0,l)
);
},
{
closed = 1;
nodes = (
(359,167,l),
(867,468,l),
(867,933,l),
(359,626,l)
);
}
);
width = 1225;
}
);
unicode = 68806;
},
{
glyphname = u10CC7;
layers = (
{
layerId = "A8967B45-C713-4D25-A888-91C227C40537";
shapes = (
{
closed = 1;
nodes = (
(349,2,l),
(349,452,l),
(120,343,l),
(52,463,l),
(349,604,l),
(349,1100,l),
(522,1100,l),
(522,688,l),
(754,798,l),
(819,673,l),
(522,534,l),
(522,2,l)
);
}
);
width = 871;
}
);
unicode = 68807;
},
{
glyphname = u10CC8;
layers = (
{
layerId = "A8967B45-C713-4D25-A888-91C227C40537";
shapes = (
{
closed = 1;
nodes = (
(20,2,l),
(355,465,l),
(112,400,l),
(66,512,l),
(411,604,l),
(44,1099,l),
(242,1099,l),
(538,683,l),
(835,1099,l),
(1023,1099,l),
(720,684,l),
(959,748,l),
(989,631,l),
(662,545,l),
(1053,2,l),
(851,2,l),
(532,466,l),
(208,2,l)
);
}
);
width = 1071;
}
);
unicode = 68808;
},
{
glyphname = u10CC9;
layers = (
{
layerId = "A8967B45-C713-4D25-A888-91C227C40537";
shapes = (
{
closed = 1;
nodes = (
(610,-2,l),
(451,122,l),
(378,81,o),
(288,41,o),
(182,0,c),
(108,115,l),
(196,148,o),
(270,181,o),
(331,214,c),
(180,334,l),
(275,429,l),
(453,289,l),
(504,327,o),
(539,367,o),
(558,409,cs),
(577,451,o),
(586,499,o),
(586,552,cs),
(586,601,o),
(576,646,o),
(557,686,cs),
(538,726,o),
(503,764,o),
(453,801,c),
(275,662,l),
(180,756,l),
(333,877,l),
(301,893,o),
(266,910,o),
(228,928,c),
(189,945,o),
(147,964,o),
(100,983,c),
(190,1098,l),
(297,1056,o),
(386,1015,o),
(457,974,c),
(620,1103,l),
(706,999,l),
(576,898,l),
(643,848,o),
(691,795,o),
(720,740,cs),
(749,684,o),
(764,621,o),
(764,552,cs),
(764,479,o),
(749,415,o),
(718,359,cs),
(687,302,o),
(638,249,o),
(570,198,c),
(696,102,l)
);
}
);
width = 819;
}
);
unicode = 68809;
},
{
glyphname = u10CCA;
layers = (
{
layerId = "A8967B45-C713-4D25-A888-91C227C40537";
shapes = (
{
closed = 1;
nodes = (
(182,4,o),
(182,4,o),
(108,120,c),
(148,136,o),
(185,151,o),
(219,166,cs),
(252,180,o),
(284,195,o),
(313,210,c),
(248,260,o),
(201,313,o),
(173,368,cs),
(144,423,o),
(130,486,o),
(130,556,cs),
(130,624,o),
(144,686,o),
(173,741,cs),
(202,796,o),
(246,847,o),
(307,895,c),
(278,910,o),
(246,925,o),
(213,941,c),
(179,956,o),
(141,972,o),
(100,989,c),
(190,1102,l),
(290,1063,o),
(376,1023,o),
(447,983,c),
(519,1024,o),
(605,1063,o),
(704,1102,c),
(793,989,l),
(752,973,o),
(714,957,o),
(681,942,cs),
(647,926,o),
(615,910,o),
(586,895,c),
(649,846,o),
(694,795,o),
(722,740,cs),
(750,685,o),
(764,624,o),
(764,556,cs),
(764,485,o),
(750,422,o),
(721,367,cs),
(692,312,o),
(645,259,o),
(580,210,c),
(609,195,o),
(641,181,o),
(675,166,cs),
(709,151,o),
(746,136,o),
(785,120,c),
(712,4,l),
(607,46,o),
(518,86,o),
(447,125,c),
(376,86,o),
(287,46,o),
(182,4,c)
);
},
{
closed = 1;
nodes = (
(499,358,o),
(535,399,o),
(556,442,cs),
(576,484,o),
(586,531,o),
(586,584,cs),
(586,636,o),
(576,682,o),
(555,723,cs),
(534,764,o),
(498,803,o),
(447,841,c),
(395,803,o),
(359,764,o),
(338,724,cs),
(317,683,o),
(307,637,o),
(307,584,cs),
(307,531,o),
(317,484,o),
(338,442,cs),
(359,399,o),
(395,358,o),
(447,319,c)
);
}
);
width = 853;
}
);
unicode = 68810;
},
{
glyphname = u10CCB;
layers = (
{
layerId = "A8967B45-C713-4D25-A888-91C227C40537";
shapes = (
{
closed = 1;
nodes = (
(391,1,l),
(68,225,l),
(208,290,ls),
(287,327,o),
(348,370,o),
(390,419,cs),
(426,461,o),
(444,506,o),
(445,553,cs),
(445,603,o),
(424,650,o),
(383,694,cs),
(336,745,o),
(268,790,o),
(180,829,cs),
(68,879,l),
(391,1099,l),
(493,1004,l),
(331,899,l),
(435,843,o),
(509,788,o),
(552,734,cs),
(595,680,o),
(616,620,o),
(616,553,cs),
(616,486,o),
(594,426,o),
(551,371,cs),
(508,316,o),
(435,262,o),
(333,208,c),
(493,100,l)
);
}
);
width = 705;
}
);
unicode = 68811;
},
{
glyphname = u10CCC;
layers = (
{
layerId = "A8967B45-C713-4D25-A888-91C227C40537";
shapes = (
{
closed = 1;
nodes = (
(622,3,o),
(622,3,o),
(485,3,c),
(372,82,o),
(281,164,o),
(213,251,cs),
(144,338,o),
(110,438,o),
(110,553,cs),
(110,668,o),
(144,769,o),
(213,855,cs),
(281,940,o),
(372,1022,o),
(485,1101,c),
(622,1101,l),
(735,1022,o),
(827,940,o),
(896,854,cs),
(965,768,o),
(999,668,o),
(999,553,cs),
(999,438,o),
(965,337,o),
(896,251,cs),
(827,164,o),
(735,82,o),
(622,3,c)
);
},
{
closed = 1;
nodes = (
(554,643,l),
(730,826,l),
(709,852,o),
(683,878,o),
(654,905,cs),
(625,931,o),
(592,958,o),
(556,986,c),
(552,986,l),
(516,958,o),
(484,931,o),
(456,905,cs),
(427,878,o),
(402,853,o),
(379,828,c)
);
},
{
closed = 1;
nodes = (
(467,549,l),
(307,721,l),
(283,670,o),
(271,614,o),
(271,553,cs),
(271,491,o),
(283,434,o),
(307,383,c)
);
},
{
closed = 1;
nodes = (
(801,385,l),
(825,436,o),
(837,492,o),
(837,553,cs),
(837,613,o),
(825,669,o),
(801,720,c),
(642,549,l)
);
},
{
closed = 1;
nodes = (
(556,121,l),
(627,175,o),
(683,225,o),
(726,272,c),
(726,272,o),
(726,272,o),
(554,456,c),
(383,272,l),
(425,225,o),
(481,175,o),
(552,121,c)
);
}
);
width = 1107;
}
);
unicode = 68812;
},
{
glyphname = u10CCD;
layers = (
{
layerId = "A8967B45-C713-4D25-A888-91C227C40537";
shapes = (
{
closed = 1;
nodes = (
(10,0,l),
(493,1098,l),
(634,1098,l),
(1119,0,l),
(941,0,l),
(764,413,l),
(598,0,l),
(425,0,l),
(680,605,l),
(648,681,ls),
(630,724,o),
(614,766,o),
(600,806,cs),
(587,845,o),
(576,879,o),
(568,910,c),
(560,910,l),
(552,878,o),
(542,845,o),
(530,812,cs),
(519,782,o),
(502,738,o),
(477,681,cs),
(184,0,l)
);
}
);
width = 1125;
}
);
unicode = 68813;
},
{
glyphname = u10CCE;
layers = (
{
layerId = "A8967B45-C713-4D25-A888-91C227C40537";
shapes = (
{
closed = 1;
nodes = (
(365,2,l),
(365,260,l),
(134,142,l),
(64,255,l),
(365,411,l),
(365,604,l),
(134,482,l),
(64,596,l),
(365,752,l),
(365,1100,l),
(538,1100,l),
(538,834,l),
(781,960,l),
(839,844,l),
(538,685,l),
(538,495,l),
(781,618,l),
(839,502,l),
(538,341,l),
(538,2,l)
);
}
);
width = 897;
}
);
unicode = 68814;
},
{
glyphname = u10CCF;
layers = (
{
layerId = "A8967B45-C713-4D25-A888-91C227C40537";
shapes = (
{
closed = 1;
nodes = (
(88,3,l),
(425,285,l),
(80,573,l),
(425,837,l),
(84,1101,l),
(301,1101,l),
(534,922,l),
(769,1101,l),
(985,1101,l),
(646,837,l),
(989,573,l),
(644,285,l),
(981,3,l),
(767,3,l),
(534,196,l),
(303,3,l)
);
},
{
closed = 1;
nodes = (
(534,379,l),
(764,571,l),
(534,749,l),
(309,571,l)
);
}
);
width = 1067;
}
);
unicode = 68815;
},
{
glyphname = u10CD0;
layers = (
{
layerId = "A8967B45-C713-4D25-A888-91C227C40537";
shapes = (
{
closed = 1;
nodes = (
(365,0,l),
(365,664,l),
(134,545,l),
(64,659,l),
(365,810,l),
(365,1098,l),
(538,1098,l),
(538,899,l),
(781,1022,l),
(839,906,l),
(538,752,l),
(538,0,l)
);
}
);
width = 901;
}
);
unicode = 68816;
},
{
glyphname = u10CD1;
layers = (
{
layerId = "A8967B45-C713-4D25-A888-91C227C40537";
shapes = (
{
closed = 1;
nodes = (
(371,4,l),
(371,885,l),
(86,749,l),
(16,856,l),
(781,1220,l),
(839,1111,l),
(544,970,l),
(544,4,l)
);
}
);
width = 839;
}
);
unicode = 68817;
},
{
glyphname = u10CD2;
layers = (
{
layerId = "A8967B45-C713-4D25-A888-91C227C40537";
shapes = (
{
closed = 1;
nodes = (
(449,2,l),
(449,889,l),
(130,606,l),
(22,702,l),
(469,1100,l),
(622,1100,l),
(622,2,l)
);
}
);
width = 811;
}
);
unicode = 68818;
},
{
glyphname = u10CD3;
layers = (
{
layerId = "A8967B45-C713-4D25-A888-91C227C40537";
shapes = (
{
closed = 1;
nodes = (
(417,3,l),
(66,557,l),
(417,1101,l),
(568,1101,l),
(917,557,l),
(568,3,l)
);
},
{
closed = 1;
nodes = (
(493,156,l),
(738,556,l),
(493,948,l),
(246,556,l)
);
}
);
width = 983;
}
);
unicode = 68819;
},
{
glyphname = u10CD4;
layers = (
{
layerId = "A8967B45-C713-4D25-A888-91C227C40537";
shapes = (
{
closed = 1;
nodes = (
(381,0,l),
(381,892,l),
(128,687,l),
(30,793,l),
(411,1098,l),
(554,1098,l),
(554,206,l),
(807,411,l),
(905,304,l),
(524,0,l)
);
}
);
width = 935;
}
);
unicode = 68820;
},
{
glyphname = u10CD5;
layers = (
{
layerId = "A8967B45-C713-4D25-A888-91C227C40537";
shapes = (
{
closed = 1;
nodes = (
(387,3,l),
(56,132,l),
(118,245,l),
(309,168,l),
(588,561,l),
(317,936,l),
(128,856,l),
(66,971,l),
(395,1102,l),
(684,683,l),
(969,1101,l),
(1302,972,l),
(1241,857,l),
(1049,936,l),
(779,561,l),
(1059,168,l),
(1249,245,l),
(1310,132,l),
(979,3,l),
(684,436,l)
);
}
);
width = 1365;
}
);
unicode = 68821;
},
{
glyphname = u10CD6;
layers = (
{
layerId = "A8967B45-C713-4D25-A888-91C227C40537";
shapes = (
{
closed = 1;
nodes = (
(10,1,l),
(538,1099,l),
(680,1099,l),
(1211,1,l),
(1035,1,l),
(933,216,l),
(843,1,l),
(676,1,l),
(849,390,l),
(767,560,l),
(512,1,l),
(345,1,l),
(686,732,l),
(671,767,o),
(658,801,o),
(645,832,cs),
(632,863,o),
(622,891,o),
(614,914,c),
(606,914,l),
(597,885,o),
(584,852,o),
(569,815,cs),
(550,770,o),
(530,725,o),
(509,682,cs),
(180,1,l)
);
}
);
width = 1219;
}
);
unicode = 68822;
},
{
glyphname = u10CD7;
layers = (
{
layerId = "A8967B45-C713-4D25-A888-91C227C40537";
shapes = (
{
closed = 1;
nodes = (
(622,2,o),
(622,2,o),
(485,2,c),
(372,81,o),
(281,163,o),
(213,250,cs),
(144,337,o),
(110,437,o),
(110,552,cs),
(110,667,o),
(144,768,o),
(213,854,cs),
(281,939,o),
(372,1021,o),
(485,1100,c),
(622,1100,l),
(735,1021,o),
(827,939,o),
(896,853,cs),
(965,767,o),
(999,667,o),
(999,552,cs),
(999,437,o),
(965,336,o),
(896,250,cs),
(827,163,o),
(735,81,o),
(622,2,c)
);
},
{
closed = 1;
nodes = (
(730,823,l),
(693,866,o),
(635,919,o),
(556,982,c),
(552,982,l),
(488,932,o),
(436,885,o),
(395,842,cs),
(354,799,o),
(323,754,o),
(304,708,cs),
(285,662,o),
(275,610,o),
(275,552,cs),
(275,493,o),
(286,437,o),
(309,384,c)
);
},
{
closed = 1;
nodes = (
(556,120,l),
(652,195,o),
(722,264,o),
(767,328,cs),
(811,392,o),
(833,467,o),
(833,552,cs),
(833,609,o),
(822,664,o),
(799,715,c),
(385,271,l),
(406,246,o),
(431,222,o),
(459,197,cs),
(486,172,o),
(517,147,o),
(552,120,c)
);
}
);
width = 1107;
}
);
unicode = 68823;
},
{
glyphname = u10CD8;
layers = (
{
layerId = "A8967B45-C713-4D25-A888-91C227C40537";
shapes = (
{
closed = 1;
nodes = (
(612,1,l),
(96,243,l),
(96,425,l),
(379,554,l),
(96,695,l),
(96,876,l),
(604,1099,l),
(769,1099,l),
(769,1,l)
);
},
{
closed = 1;
nodes = (
(610,585,l),
(610,941,l),
(242,779,l)
);
},
{
closed = 1;
nodes = (
(610,172,l),
(610,522,l),
(242,340,l)
);
}
);
width = 959;
}
);
unicode = 68824;
},
{
glyphname = u10CD9;
layers = (
{
layerId = "A8967B45-C713-4D25-A888-91C227C40537";
shapes = (
{
closed = 1;
nodes = (
(146,4,o),
(146,4,o),
(72,120,c),
(197,169,o),
(295,214,o),
(364,257,cs),
(433,300,o),
(481,345,o),
(509,392,cs),
(536,439,o),
(550,494,o),
(550,556,cs),
(550,614,o),
(536,666,o),
(509,711,cs),
(481,756,o),
(432,800,o),
(362,843,cs),
(291,886,o),
(192,934,o),
(64,986,c),
(154,1102,l),
(293,1047,o),
(404,992,o),
(487,939,cs),
(570,885,o),
(631,827,o),
(670,765,cs),
(709,703,o),
(728,633,o),
(728,556,cs),
(728,475,o),
(709,404,o),
(670,343,cs),
(631,281,o),
(570,223,o),
(485,169,cs),
(400,114,o),
(287,59,o),
(146,4,c)
);
}
);
width = 837;
}
);
unicode = 68825;
},
{
glyphname = u10CDA;
layers = (
{
layerId = "A8967B45-C713-4D25-A888-91C227C40537";
shapes = (
{
closed = 1;
nodes = (
(359,1,o),
(359,1,o),
(190,1,c),
(190,1099,l),
(359,1099,l),
(480,1040,o),
(578,983,o),
(653,926,cs),
(727,869,o),
(781,810,o),
(816,749,cs),
(850,688,o),
(867,622,o),
(867,551,cs),
(867,476,o),
(850,408,o),
(817,347,cs),
(783,285,o),
(729,227,o),
(655,172,cs),
(580,117,o),
(482,60,o),
(359,1,c)
);
},
{
closed = 1;
nodes = (
(359,161,l),
(482,222,o),
(568,283,o),
(619,343,cs),
(669,402,o),
(694,472,o),
(694,551,cs),
(694,598,o),
(684,642,o),
(665,683,cs),
(646,724,o),
(612,765,o),
(565,806,cs),
(517,847,o),
(448,890,o),
(359,937,c)
);
}
);
width = 977;
}
);
unicode = 68826;
},
{
glyphname = u10CDB;
layers = (
{
layerId = "A8967B45-C713-4D25-A888-91C227C40537";
shapes = (
{
closed = 1;
nodes = (
(421,3,o),
(421,3,o),
(64,289,c),
(180,388,l),
(437,180,l),
(520,240,o),
(577,298,o),
(610,354,cs),
(643,411,o),
(660,474,o),
(660,544,cs),
(660,587,o),
(653,629,o),
(638,669,cs),
(623,708,o),
(599,748,o),
(564,787,cs),
(529,826,o),
(482,868,o),
(423,912,c),
(180,713,l),
(64,812,l),
(421,1101,l),
(522,1032,o),
(603,968,o),
(664,909,cs),
(724,849,o),
(767,789,o),
(794,730,cs),
(820,671,o),
(833,609,o),
(833,544,cs),
(833,435,o),
(799,340,o),
(731,258,cs),
(663,176,o),
(560,91,o),
(421,3,c)
);
}
);
width = 943;
}
);
unicode = 68827;
},
{
glyphname = u10CDC;
layers = (
{
layerId = "A8967B45-C713-4D25-A888-91C227C40537";
shapes = (
{
closed = 1;
nodes = (
(481,3,o),
(481,3,o),
(56,353,c),
(363,640,l),
(477,539,l),
(281,362,l),
(499,178,l),
(586,239,o),
(646,298,o),
(679,354,cs),
(713,411,o),
(730,475,o),
(730,545,cs),
(730,596,o),
(719,644,o),
(698,689,cs),
(677,734,o),
(640,781,o),
(588,829,cs),
(536,877,o),
(464,931,o),
(373,990,c),
(481,1101,l),
(585,1033,o),
(667,969,o),
(728,910,cs),
(789,850,o),
(833,791,o),
(860,732,cs),
(887,673,o),
(901,610,o),
(901,545,cs),
(901,437,o),
(867,342,o),
(798,259,cs),
(729,176,o),
(624,91,o),
(481,3,c)
);
}
);
width = 1011;
}
);
unicode = 68828;
},
{
glyphname = u10CDD;
layers = (
{
layerId = "A8967B45-C713-4D25-A888-91C227C40537";
shapes = (
{
closed = 1;
nodes = (
(524,2,l),
(66,382,l),
(461,700,l),
(94,995,l),
(208,1098,l),
(672,707,l),
(279,388,l),
(627,105,l)
);
}
);
width = 737;
}
);
unicode = 68829;
},
{
glyphname = u10CDE;
layers = (
{
layerId = "A8967B45-C713-4D25-A888-91C227C40537";
shapes = (
{
closed = 1;
nodes = (
(190,2,l),
(190,1100,l),
(363,1100,l),
(363,567,l),
(738,1100,l),
(931,1100,l),
(536,565,l),
(945,2,l),
(742,2,l),
(363,552,l),
(363,2,l)
);
}
);
width = 981;
}
);
unicode = 68830;
},
{
glyphname = u10CDF;
layers = (
{
layerId = "A8967B45-C713-4D25-A888-91C227C40537";
shapes = (
{
closed = 1;
nodes = (
(481,4,o),
(481,4,o),
(56,354,c),
(363,641,l),
(477,540,l),
(281,363,l),
(499,179,l),
(555,218,o),
(599,257,o),
(632,294,c),
(536,363,l),
(628,448,l),
(700,396,l),
(720,443,o),
(730,493,o),
(730,546,cs),
(730,571,o),
(727,597,o),
(722,623,cs),
(717,648,o),
(707,674,o),
(694,699,c),
(626,649,l),
(534,735,l),
(620,798,l),
(565,855,o),
(483,920,o),
(373,991,c),
(481,1102,l),
(540,1064,o),
(591,1028,o),
(635,993,cs),
(678,958,o),
(716,924,o),
(748,891,c),
(881,988,l),
(971,906,l),
(825,796,l),
(852,755,o),
(871,715,o),
(883,674,cs),
(895,633,o),
(901,590,o),
(901,546,cs),
(901,457,o),
(877,376,o),
(829,301,c),
(977,192,l),
(887,106,l),
(750,206,l),
(717,172,o),
(678,139,o),
(634,106,cs),
(589,73,o),
(538,39,o),
(481,4,c)
);
}
);
width = 1077;
}
);
unicode = 68831;
},
{
glyphname = u10CE0;
layers = (
{
layerId = "A8967B45-C713-4D25-A888-91C227C40537";
shapes = (
{
closed = 1;
nodes = (
(184,-14,l),
(84,85,l),
(544,425,l),
(544,590,l),
(184,314,l),
(84,412,l),
(544,753,l),
(544,918,l),
(184,641,l),
(84,737,l),
(564,1100,l),
(714,1100,l),
(714,2,l),
(544,2,l),
(544,263,l)
);
}
);
width = 903;
}
);
unicode = 68832;
},
{
glyphname = u10CE1;
layers = (
{
layerId = "A8967B45-C713-4D25-A888-91C227C40537";
shapes = (
{
closed = 1;
nodes = (
(509,129,o),
(509,129,o),
(339,-33,c),
(222,65,l),
(413,232,l),
(365,293,o),
(332,357,o),
(315,423,c),
(104,318,l),
(28,441,l),
(299,569,l),
(302,624,o),
(312,674,o),
(331,719,cs),
(350,763,o),
(376,806,o),
(409,848,c),
(164,743,l),
(94,867,l),
(672,1097,l),
(815,1097,l),
(1394,867,l),
(1324,743,l),
(1077,850,l),
(1112,808,o),
(1139,765,o),
(1158,720,cs),
(1177,675,o),
(1188,624,o),
(1189,569,c),
(1460,441,l),
(1384,318,l),
(1173,423,l),
(1164,388,o),
(1151,355,o),
(1134,324,cs),
(1117,293,o),
(1098,262,o),
(1075,232,c),
(1267,65,l),
(1149,-33,l),
(979,129,l),
(954,107,o),
(927,85,o),
(899,63,cs),
(871,41,o),
(842,20,o),
(811,-1,c),
(674,-1,l),
(643,20,o),
(614,41,o),
(587,62,cs),
(559,83,o),
(533,106,o),
(509,129,c)
);
},
{
closed = 1;
nodes = (
(746,127,l),
(842,202,o),
(912,271,o),
(957,336,cs),
(1001,400,o),
(1023,475,o),
(1023,560,cs),
(1023,648,o),
(1000,725,o),
(955,791,cs),
(910,856,o),
(840,923,o),
(746,990,c),
(746,990,o),
(746,990,o),
(742,990,c),
(645,923,o),
(574,856,o),
(531,791,cs),
(487,725,o),
(465,648,o),
(465,560,cs),
(465,501,o),
(475,449,o),
(495,402,cs),
(514,355,o),
(544,310,o),
(585,267,cs),
(626,224,o),
(678,177,o),
(742,127,c)
);
}
);
width = 1487;
}
);
unicode = 68833;
},
{
glyphname = u10CE2;
layers = (
{
layerId = "A8967B45-C713-4D25-A888-91C227C40537";
shapes = (
{
closed = 1;
nodes = (
(190,1,l),
(190,1099,l),
(363,1099,l),
(363,485,l),
(887,797,l),
(887,1099,l),
(1061,1099,l),
(1061,1,l),
(887,1,l),
(887,634,l),
(363,322,l),
(363,1,l)
);
}
);
width = 1249;
}
);
unicode = 68834;
},
{
glyphname = u10CE3;
layers = (
{
layerId = "A8967B45-C713-4D25-A888-91C227C40537";
shapes = (
{
closed = 1;
nodes = (
(132,344,l),
(54,469,l),
(736,826,l),
(815,702,l)
);
}
);
width = 879;
}
);
unicode = 68835;
},
{
glyphname = u10CE4;
layers = (
{
layerId = "A8967B45-C713-4D25-A888-91C227C40537";
shapes = (
{
closed = 1;
nodes = (
(10,2,l),
(493,1098,l),
(634,1098,l),
(1119,2,l),
(941,2,l),
(648,683,ls),
(633,720,o),
(617,762,o),
(600,809,cs),
(587,847,o),
(576,881,o),
(568,912,c),
(560,912,l),
(552,880,o),
(542,847,o),
(529,813,cs),
(500,740,o),
(483,697,o),
(477,683,cs),
(184,2,l)
);
}
);
width = 1127;
}
);
unicode = 68836;
},
{
glyphname = u10CE5;
layers = (
{
layerId = "A8967B45-C713-4D25-A888-91C227C40537";
shapes = (
{
closed = 1;
nodes = (
(190,2,l),
(190,1100,l),
(363,1100,l),
(363,2,l)
);
}
);
width = 551;
}
);
unicode = 68837;
},
{
glyphname = u10CE6;
layers = (
{
layerId = "A8967B45-C713-4D25-A888-91C227C40537";
shapes = (
{
closed = 1;
nodes = (
(568,1,l),
(568,440,l),
(76,991,l),
(206,1096,l),
(568,679,l),
(568,1099,l),
(742,1099,l),
(742,1,l)
);
}
);
width = 931;
}
);
unicode = 68838;
},
{
glyphname = u10CE7;
layers = (
{
layerId = "A8967B45-C713-4D25-A888-91C227C40537";
shapes = (
{
closed = 1;
nodes = (
(574,6,l),
(574,625,l),
(285,915,l),
(134,771,l),
(28,867,l),
(293,1104,l),
(574,817,l),
(574,1104,l),
(744,1104,l),
(744,819,l),
(1027,1104,l),
(1290,867,l),
(1187,771,l),
(1033,915,l),
(744,627,l),
(744,6,l)
);
}
);
width = 1317;
}
);
unicode = 68839;
},
{
glyphname = u10CE8;
layers = (
{
layerId = "A8967B45-C713-4D25-A888-91C227C40537";
shapes = (
{
closed = 1;
nodes = (
(20,3,l),
(433,573,l),
(44,1098,l),
(242,1098,l),
(363,930,l),
(477,1098,l),
(652,1098,l),
(449,807,l),
(538,684,l),
(835,1098,l),
(1023,1098,l),
(640,577,l),
(1053,3,l),
(851,3,l),
(714,203,l),
(578,3,l),
(405,3,l),
(628,328,l),
(532,467,l),
(208,3,l)
);
}
);
width = 1071;
}
);
unicode = 68840;
},
{
glyphname = u10CE9;
layers = (
{
layerId = "A8967B45-C713-4D25-A888-91C227C40537";
shapes = (
{
closed = 1;
nodes = (
(875,-5,l),
(471,102,l),
(514,227,l),
(763,155,l),
(542,458,l),
(208,3,l),
(20,3,l),
(433,573,l),
(44,1098,l),
(242,1098,l),
(541,696,l),
(709,932,l),
(476,866,l),
(436,991,l),
(830,1098,l),
(942,1004,l),
(629,577,l),
(1003,89,l)
);
}
);
width = 1029;
}
);
unicode = 68841;
},
{
glyphname = u10CEA;
layers = (
{
layerId = "A8967B45-C713-4D25-A888-91C227C40537";
shapes = (
{
closed = 1;
nodes = (
(190,1,l),
(190,1099,l),
(343,1099,l),
(660,889,l),
(973,1099,l),
(1131,1099,l),
(1131,1,l),
(973,1,l),
(660,211,l),
(343,1,l)
);
},
{
closed = 1;
nodes = (
(359,185,l),
(660,379,l),
(961,185,l),
(961,913,l),
(660,720,l),
(359,913,l)
);
}
);
width = 1319;
}
);
unicode = 68842;
},
{
glyphname = u10CEB;
layers = (
{
layerId = "A8967B45-C713-4D25-A888-91C227C40537";
shapes = (
{
closed = 1;
nodes = (
(190,-1,l),
(190,1097,l),
(345,1097,l),
(710,647,l),
(1081,1097,l),
(1227,1097,l),
(1227,-1,l),
(1081,-1,l),
(710,445,l),
(345,-1,l)
);
},
{
closed = 1;
nodes = (
(1071,231,l),
(1077,231,l),
(1077,862,l),
(1071,862,l),
(803,549,l)
);
},
{
closed = 1;
nodes = (
(349,239,l),
(355,239,l),
(616,549,l),
(355,852,l),
(349,852,l)
);
}
);
width = 1415;
}
);
unicode = 68843;
},
{
glyphname = u10CEC;
layers = (
{
layerId = "A8967B45-C713-4D25-A888-91C227C40537";
shapes = (
{
closed = 1;
nodes = (
(351,133,o),
(351,133,o),
(194,-25,c),
(76,73,l),
(254,239,l),
(218,286,o),
(190,335,o),
(171,387,cs),
(152,438,o),
(142,493,o),
(142,551,cs),
(142,610,o),
(152,666,o),
(171,718,cs),
(190,770,o),
(218,819,o),
(254,864,c),
(76,1027,l),
(194,1125,l),
(351,968,l),
(398,1012,o),
(453,1056,o),
(516,1101,c),
(654,1101,l),
(717,1057,o),
(772,1013,o),
(821,968,c),
(821,968,o),
(821,968,o),
(981,1125,c),
(1099,1027,l),
(919,864,l),
(954,817,o),
(981,768,o),
(1001,717,cs),
(1021,666,o),
(1031,610,o),
(1031,551,cs),
(1031,492,o),
(1021,437,o),
(1001,386,cs),
(981,335,o),
(954,286,o),
(919,239,c),
(1099,73,l),
(981,-25,l),
(821,133,l),
(796,111,o),
(769,89,o),
(742,67,cs),
(714,45,o),
(685,24,o),
(654,3,c),
(516,3,l),
(455,46,o),
(400,89,o),
(351,133,c)
);
},
{
closed = 1;
nodes = (
(588,120,l),
(684,195,o),
(754,264,o),
(799,329,cs),
(843,393,o),
(865,467,o),
(865,551,cs),
(865,636,o),
(843,711,o),
(798,775,cs),
(753,839,o),
(683,908,o),
(588,983,c),
(588,983,o),
(588,983,o),
(584,983,c),
(520,933,o),
(468,886,o),
(427,842,cs),
(386,797,o),
(355,752,o),
(336,706,cs),
(317,659,o),
(307,608,o),
(307,551,cs),
(307,494,o),
(317,442,o),
(337,396,cs),
(357,349,o),
(387,304,o),
(428,261,cs),
(468,217,o),
(520,170,o),
(584,120,c)
);
}
);
width = 1173;
}
);
unicode = 68844;
},
{
glyphname = u10CED;
layers = (
{
layerId = "A8967B45-C713-4D25-A888-91C227C40537";
shapes = (
{
closed = 1;
nodes = (
(805,1,l),
(805,646,l),
(339,307,l),
(172,307,l),
(172,1098,l),
(345,1098,l),
(345,496,l),
(809,835,l),
(979,835,l),
(979,1,l)
);
}
);
width = 1149;
}
);
unicode = 68845;
},
{
glyphname = u10CEE;
layers = (
{
layerId = "A8967B45-C713-4D25-A888-91C227C40537";
shapes = (
{
closed = 1;
nodes = (
(190,0,l),
(190,1098,l),
(343,1098,l),
(660,888,l),
(973,1098,l),
(1131,1098,l),
(1131,0,l),
(961,0,l),
(961,912,l),
(660,719,l),
(359,912,l),
(359,0,l)
);
}
);
width = 1319;
}
);
unicode = 68846;
},
{
glyphname = u10CEF;
layers = (
{
layerId = "A8967B45-C713-4D25-A888-91C227C40537";
shapes = (
{
closed = 1;
nodes = (
(190,48,l),
(190,1149,l),
(359,1149,l),
(359,831,l),
(867,1149,l),
(1037,1149,l),
(1037,48,l),
(867,48,l),
(867,365,l),
(359,48,l)
);
},
{
closed = 1;
nodes = (
(359,514,l),
(867,831,l),
(867,1000,l),
(359,683,l)
);
},
{
closed = 1;
nodes = (
(359,197,l),
(867,514,l),
(867,683,l),
(359,365,l)
);
}
);
width = 1225;
}
);
unicode = 68847;
},
{
glyphname = u10CF0;
layers = (
{
layerId = "A8967B45-C713-4D25-A888-91C227C40537";
shapes = (
{
closed = 1;
nodes = (
(532,2,l),
(532,477,l),
(58,1014,l),
(196,1100,l),
(532,706,l),
(532,1100,l),
(706,1100,l),
(706,706,l),
(1057,1100,l),
(1193,1014,l),
(706,477,l),
(706,2,l)
);
}
);
width = 1239;
}
);
unicode = 68848;
},
{
glyphname = u10CF1;
layers = (
{
layerId = "A8967B45-C713-4D25-A888-91C227C40537";
shapes = (
{
closed = 1;
nodes = (
(618,4,l),
(331,280,l),
(154,157,l),
(60,258,l),
(337,453,l),
(618,181,l),
(618,356,l),
(331,617,l),
(154,492,l),
(60,595,l),
(337,785,l),
(618,523,l),
(618,692,l),
(331,953,l),
(154,830,l),
(60,931,l),
(337,1126,l),
(618,861,l),
(618,1102,l),
(787,1102,l),
(787,861,l),
(1071,1126,l),
(1348,931,l),
(1255,830,l),
(1077,953,l),
(787,692,l),
(787,523,l),
(1071,785,l),
(1348,595,l),
(1255,492,l),
(1077,617,l),
(787,356,l),
(787,181,l),
(1071,453,l),
(1348,258,l),
(1255,157,l),
(1077,280,l),
(787,4,l)
);
}
);
width = 1407;
}
);
unicode = 68849;
},
{
glyphname = u10CF2;
layers = (
{
layerId = "A8967B45-C713-4D25-A888-91C227C40537";
shapes = (
{
closed = 1;
nodes = (
(622,2,o),
(622,2,o),
(485,2,c),
(372,81,o),
(281,163,o),
(213,250,cs),
(144,337,o),
(110,436,o),
(110,549,cs),
(110,664,o),
(144,765,o),
(213,852,cs),
(281,939,o),
(372,1021,o),
(485,1100,c),
(622,1100,l),
(735,1021,o),
(827,939,o),
(896,852,cs),
(965,765,o),
(999,664,o),
(999,549,cs),
(999,436,o),
(965,336,o),
(896,250,cs),
(827,163,o),
(735,81,o),
(622,2,c)
);
},
{
closed = 1;
nodes = (
(479,922,l),
(408,862,o),
(357,803,o),
(324,746,cs),
(291,688,o),
(275,623,o),
(275,550,cs),
(275,477,o),
(292,412,o),
(325,355,cs),
(358,298,o),
(410,240,o),
(479,180,c)
);
},
{
closed = 1;
nodes = (
(632,182,l),
(701,242,o),
(752,300,o),
(785,357,cs),
(817,413,o),
(833,477,o),
(833,550,cs),
(833,623,o),
(817,688,o),
(785,745,cs),
(752,802,o),
(701,860,o),
(632,920,c)
);
}
);
width = 1107;
}
);
unicode = 68850;
},
{
glyphname = u10CFA;
layers = (
{
layerId = "A8967B45-C713-4D25-A888-91C227C40537";
shapes = (
{
closed = 1;
nodes = (
(248,2,l),
(248,1463,l),
(427,1463,l),
(427,2,l)
);
}
);
width = 679;
}
);
unicode = 68858;
},
{
glyphname = u10CFB;
layers = (
{
layerId = "A8967B45-C713-4D25-A888-91C227C40537";
shapes = (
{
closed = 1;
nodes = (
(495,0,l),
(10,1497,l),
(188,1497,l),
(481,594,ls),
(494,552,o),
(510,493,o),
(528,417,cs),
(541,362,o),
(552,313,o),
(560,269,c),
(560,269,o),
(560,269,o),
(568,269,c),
(567,275,o),
(577,322,o),
(598,411,cs),
(610,460,o),
(628,521,o),
(652,594,cs),
(945,1497,l),
(1119,1497,l),
(636,0,l)
);
}
);
width = 1127;
}
);
unicode = 68859;
},
{
glyphname = u10CFC;
layers = (
{
layerId = "A8967B45-C713-4D25-A888-91C227C40537";
shapes = (
{
closed = 1;
nodes = (
(8,3,l),
(570,754,l),
(44,1460,l),
(263,1460,l),
(690,867,l),
(1123,1460,l),
(1330,1460,l),
(805,756,l),
(1370,3,l),
(1147,3,l),
(684,637,l),
(216,3,l)
);
}
);
width = 1377;
}
);
unicode = 68860;
},
{
glyphname = u10CFD;
layers = (
{
layerId = "A8967B45-C713-4D25-A888-91C227C40537";
shapes = (
{
closed = 1;
nodes = (
(473,4,l),
(4,1461,l),
(188,1461,l),
(429,690,l),
(434,670,o),
(444,633,o),
(459,580,cs),
(468,545,o),
(477,512,o),
(485,479,c),
(479,1461,l),
(652,1461,l),
(646,477,l),
(653,508,o),
(662,541,o),
(672,578,cs),
(681,613,o),
(691,650,o),
(702,690,c),
(945,1461,l),
(1125,1461,l),
(658,4,l)
);
}
);
width = 1127;
}
);
unicode = 68861;
},
{
glyphname = u10CFE;
layers = (
{
layerId = "A8967B45-C713-4D25-A888-91C227C40537";
shapes = (
{
closed = 1;
nodes = (
(785,987,l),
(1127,1456,l),
(1334,1456,l),
(809,762,l),
(1374,0,l),
(1151,0,l),
(785,535,l),
(785,8,l),
(612,8,l),
(612,543,l),
(220,0,l),
(12,0,l),
(574,760,l),
(48,1456,l),
(267,1456,l),
(612,978,l),
(612,1454,l),
(785,1454,l)
);
}
);
width = 1377;
}
);
unicode = 68862;
},
{
glyphname = u10CFF;
layers = (
{
layerId = "A8967B45-C713-4D25-A888-91C227C40537";
shapes = (
{
closed = 1;
nodes = (
(865,679,l),
(1370,1,l),
(1147,1,l),
(781,550,l),
(781,9,l),
(608,9,l),
(608,548,l),
(216,1,l),
(8,1,l),
(499,671,l),
(52,671,l),
(46,889,l),
(481,885,l),
(44,1468,l),
(263,1468,l),
(608,983,l),
(608,1466,l),
(781,1466,l),
(781,992,l),
(1123,1468,l),
(1330,1468,l),
(895,890,l),
(1322,893,l),
(1328,679,l)
);
}
);
width = 1377;
}
);
unicode = 68863;
},
